<svg width="20" height="19" viewBox="0 0 20 19" fill="none" xmlns="http://www.w3.org/2000/svg">
<path d="M17.4663 0H2.76885C1.66236 0 0.764648 0.897715 0.764648 2.0042V16.7017C0.764648 17.8082 1.66236 18.7059 2.76885 18.7059H17.4663C18.5728 18.7059 19.4705 17.8082 19.4705 16.7017V2.0042C19.4705 0.897715 18.5728 0 17.4663 0ZM15.4246 6.63057C15.4329 6.74748 15.4329 6.86857 15.4329 6.98548C15.4329 10.6056 12.6771 14.7768 7.64157 14.7768C6.08831 14.7768 4.64779 14.3259 3.43692 13.5492C3.65821 13.5743 3.87116 13.5826 4.09663 13.5826C5.37849 13.5826 6.55596 13.1484 7.49543 12.4135C6.2929 12.3885 5.28245 11.5993 4.93589 10.5137C5.35761 10.5763 5.73757 10.5763 6.17182 10.4636C4.91919 10.2089 3.97972 9.10659 3.97972 7.77463V7.74123C4.34298 7.94583 4.76888 8.07109 5.21565 8.08779C4.84004 7.83795 4.53212 7.499 4.31938 7.1012C4.10664 6.7034 3.99569 6.25912 3.99642 5.80801C3.99642 5.29861 4.13004 4.83096 4.36804 4.42595C5.7167 6.08776 7.74178 7.17337 10.0132 7.29028C9.62489 5.43222 11.0153 3.9249 12.6855 3.9249C13.4746 3.9249 14.1844 4.25475 14.6855 4.78921C15.3035 4.6723 15.8964 4.44265 16.4225 4.12949C16.2179 4.76415 15.7878 5.29861 15.22 5.63682C15.7711 5.57836 16.3056 5.42387 16.7983 5.21093C16.4267 5.75791 15.959 6.24225 15.4246 6.63057Z" fill="#6E518F"/>
</svg>
