<svg width="19" height="19" viewBox="0 0 19 19" fill="none" xmlns="http://www.w3.org/2000/svg">
<path d="M18.7059 2.0042V16.7017C18.7059 17.8082 17.8082 18.7059 16.7017 18.7059H13.14V11.307H15.6704L16.0336 8.48445H13.14V6.68067C13.14 5.86229 13.3655 5.30696 14.5388 5.30696H16.0336V2.78501C15.7747 2.7516 14.8895 2.67227 13.854 2.67227C11.6995 2.67227 10.2214 3.98753 10.2214 6.40509V8.48863H7.68277V11.3112H10.2256V18.7059H2.0042C0.897715 18.7059 0 17.8082 0 16.7017V2.0042C0 0.897715 0.897715 0 2.0042 0H16.7017C17.8082 0 18.7059 0.897715 18.7059 2.0042Z" fill="#6E518F"/>
</svg>
